<?xml version="1.0" standalone="no"?>
<!DOCTYPE svg PUBLIC "-//W3C//DTD SVG 1.1//EN" "http://www.w3.org/Graphics/SVG/1.1/DTD/svg11.dtd">
<svg xmlns="http://www.w3.org/2000/svg" viewBox="0 0 412.76 95.65" width="412.760009765625" height="95.6500015258789"><defs><style>.cls-1{fill:#0f0f0f;}.cls-2{fill:#67be4d;}</style></defs><g id="Layer_2" data-name="Layer 2"><g id="Layer_1-2" data-name="Layer 1"><path class="cls-1" d="M144,64.68H132.3V23.15H144Zm25.47-31.05h-34V23.15h34Zm-.93,16.61h-33V39.82h33Z"/><path class="cls-1" d="M184.11,64.68H172.46V23.15h11.65Z"/><path class="cls-1" d="M199.48,64.68H187.83V23.15h12.4l11.52,15.56,6.08,9.54h.8l-.55-9V23.15h11.65V64.68h-12.4l-12.27-16-5.27-8.18H199l.49,7.93Z"/><path class="cls-1" d="M246.22,64.68H231l15.68-20.39v-.81L231,23.15h15.25l10,13.45h.8l9.48-13.45h15.25L266.17,43.73v.81l15.62,20.14H266.54l-10-13.51h-.81Z"/><path class="cls-1" d="M294.68,64.68H283V23.15h11.65Zm25.23-31.05H286.19V23.15h33.72ZM319,49H286.19V38.59H319Zm.93,15.68H286.19V54.2h33.72Z"/><path class="cls-1" d="M334.85,64.68H323.19V23.15h24.24a25,25,0,0,1,9.23,1.49A11.76,11.76,0,0,1,362.27,29a12.12,12.12,0,0,1,1.89,6.91A13,13,0,0,1,363,41.53a8.93,8.93,0,0,1-3.63,3.84,16.83,16.83,0,0,1-6.44,2v.62a9,9,0,0,1,4.61,2.39,18,18,0,0,1,2.57,3.94l5.15,10.41H351.83l-5-10.17a9.84,9.84,0,0,0-1.55-2.41,4.3,4.3,0,0,0-2.11-1.21,14.63,14.63,0,0,0-3.59-.34h-4.77Zm0-31.05v8.24H347.3a6.53,6.53,0,0,0,3.6-.74c.7-.5,1.05-1.64,1.05-3.41s-.35-2.75-1.05-3.29a6.13,6.13,0,0,0-3.6-.8Z"/><path class="cls-1" d="M389.51,65.3a26.9,26.9,0,0,1-12.36-2.64,18.39,18.39,0,0,1-7.9-7.43,22.55,22.55,0,0,1-2.73-11.31,22.56,22.56,0,0,1,2.73-11.32,18.39,18.39,0,0,1,7.9-7.43,26.9,26.9,0,0,1,12.36-2.64,27.54,27.54,0,0,1,12.62,2.64A18.45,18.45,0,0,1,410,32.6a22.56,22.56,0,0,1,2.73,11.32A22.55,22.55,0,0,1,410,55.23a18.45,18.45,0,0,1-7.9,7.43A27.54,27.54,0,0,1,389.51,65.3Zm0-11.16a20.63,20.63,0,0,0,6.57-.83,5.43,5.43,0,0,0,3.32-3.07,16.53,16.53,0,0,0,1-6.32,16.52,16.52,0,0,0-1-6.36,5.43,5.43,0,0,0-3.32-3,20.3,20.3,0,0,0-6.57-.84,19.67,19.67,0,0,0-6.5.84,5.22,5.22,0,0,0-3.2,3,17.78,17.78,0,0,0-.89,6.36,17.79,17.79,0,0,0,.89,6.32,5.23,5.23,0,0,0,3.2,3.07A20,20,0,0,0,389.51,54.14Z"/><path class="cls-2" d="M97.32,22.53A41.44,41.44,0,0,0,79.64,5.89Q68.08,0,51.43,0,35.35,0,23.78,5.89A41.33,41.33,0,0,0,6.1,22.53Q0,33.27,0,47.82t6.1,25.3A41.13,41.13,0,0,0,23.78,89.75q11.56,5.9,27.65,5.9,16.63,0,28.21-5.9A41.24,41.24,0,0,0,97.32,73.12q6.09-10.74,6.1-25.3T97.32,22.53ZM73.54,62a12.17,12.17,0,0,1-7.41,6.86A38.15,38.15,0,0,1,55.38,70.6v7.12a1.7,1.7,0,0,1-1.7,1.7H49.8a1.7,1.7,0,0,1-1.7-1.7V70.63a37.79,37.79,0,0,1-11.22-1.8A11.73,11.73,0,0,1,29.73,62q-2-5-2-14.15c0-6.18.66-10.93,2-14.2a11.69,11.69,0,0,1,7.15-6.8A37.47,37.47,0,0,1,48.1,25V18.54a1.7,1.7,0,0,1,1.7-1.7h3.88a1.7,1.7,0,0,1,1.7,1.7v6.51a38.15,38.15,0,0,1,10.75,1.77,12.13,12.13,0,0,1,7.41,6.8c1.44,3.27,2.15,8,2.15,14.2S75,58.64,73.54,62Z"/></g></g></svg>